<svg xmlns="http://www.w3.org/2000/svg" xmlns:xlink="http://www.w3.org/1999/xlink" width="1440" height="953" viewBox="0 0 1440 953">
    <defs>
        <linearGradient id="b" x1="5.465%" x2="92.503%" y1="6.411%" y2="93.26%">
            <stop offset="0%" stop-color="#CB2D3E"/>
            <stop offset="100%" stop-color="#EF473A"/>
        </linearGradient>
        <path id="a" d="M0 0h1440v953H0z"/>
    </defs>
    <g fill="none" fill-rule="evenodd">
        <mask id="c" fill="#fff">
            <use xlink:href="#a"/>
        </mask>
        <use fill="url(#b)" xlink:href="#a"/>
        <g fill-rule="nonzero" mask="url(#c)" style="mix-blend-mode:luminosity">
            <g transform="rotate(9 1980.536 2157.547)">
                <path fill="#FF4F19" d="M45 625zM40 614zM36 604zM32 595zM546.706 15c69.338 19.057 131.691 55.02 182.416 103.148-17.107-2.066-34.484-3.252-52.147-3.252-223.478 0-407.282 170.075-429.371 388.016l-.016.175c-.002.025-.004.05-.008.075 56.99 9.884 120.538 15.098 184.823 15.098 75.276 0 148.881-7.063 212.862-20.428 25.246-5.29 48.92-11.535 70.388-18.598 7.544-2.505 15.665 1.632 18.152 9.2 2.473 7.554-1.63 15.686-9.187 18.177-13.988 4.599-28.93 8.818-44.502 12.71-.181.15-.266.37-.457.514l-28.154 21.144 29.293 8.09a14.392 14.392 0 0 1 10.565 14.054c-.085 6.556-4.552 12.225-10.903 13.8-72.595 18.177-158.38 27.772-248.057 27.772a14.389 14.389 0 0 1-13.768-10.229 14.424 14.424 0 0 1 5.789-16.165c4.609-3.08 4.44-7.653 4.16-9.468-.281-1.83-1.519-6.247-6.858-7.766l-78.746-17.432c-.117-.027-.202-.111-.319-.14-33.517-2.514-66.18-6.277-96.994-11.458-.17 4.992-.288 9.998-.288 15.032 0 97.61 32.39 187.588 86.913 259.916 33.402-15.23 67.766-30.688 100.717-29.408 51.828 2.28 78.311-12.365 78.565-12.52 6.884-3.841 15.665-1.477 19.586 5.373 3.92 6.867 1.643 15.588-5.185 19.569-1.32.789-32.918 18.992-94.173 16.361-24.171-1.235-52.655 10.96-80.81 23.761l.004.004-.007.003a435.792 435.792 0 0 0 29.27 30.618 429.33 429.33 0 0 1-67.533-13.72.014.014 0 0 0-.007.004c-.063-.018-.126-.04-.189-.058a427.639 427.639 0 0 1-10.775-3.27c-2.223-.7-4.426-1.442-6.632-2.175-.853-.286-1.707-.566-2.556-.855-9.675-3.281-19.215-6.849-28.554-10.814.1.004.207-.005.308-.003C175.349 792.158 101.623 725.465 55 641.585 128.683 774.234 270.063 864 432.403 864 670.767 864 864 670.508 864 431.824 864 232.768 729.592 65.174 546.706 15zm-56.757 402.419c-.464.028-1.223-.015-1.84-.015-20.554 0-33.213 6.472-47.824 13.941-15.525 7.934-32.694 16.713-59.12 16.713-6.997 0-14.626-.62-23.054-2.026-7.84-1.309-13.137-8.737-11.83-16.572 1.293-7.85 8.683-13.239 16.55-11.845 30.951 5.135 46.42-2.757 64.375-11.93 16.073-8.23 33.704-17.908 62.982-17.078 7.938.126 14.275 6.682 14.148 14.645-.126 7.864-6.548 14.167-14.387 14.167zm112.016-19.908c-12.912 16.46-44.368 19.387-53.696 19.893-.268.015-.52.015-.788.015-7.587 0-13.923-5.937-14.345-13.62-.435-7.933 5.634-14.73 13.557-15.165 13.797-.789 29.658-5.121 32.65-8.934 4.905-6.246 13.938-7.357 20.203-2.42 6.24 4.91 7.335 13.972 2.419 20.231zm-231.28 202.864c-2.74 2.73-6.478 4.318-10.215 4.318s-7.488-1.59-10.214-4.178c-2.599-2.742-4.173-6.486-4.173-10.228s1.574-7.498 4.173-10.228c5.324-5.332 14.962-5.332 20.427 0 2.726 2.73 4.172 6.486 4.172 10.228s-1.446 7.486-4.17 10.088zm187.023 72.029c-2.739 2.73-6.477 4.318-10.214 4.318s-7.489-1.59-10.215-4.178c-2.598-2.742-4.172-6.486-4.172-10.228s1.574-7.498 4.172-10.228c5.325-5.332 14.962-5.332 20.427 0 2.727 2.73 4.172 6.486 4.172 10.228s-1.444 7.486-4.17 10.088zm115.093-317.107c-2.74 2.73-6.478 4.318-10.215 4.318s-7.488-1.59-10.214-4.178c-2.599-2.742-4.172-6.486-4.172-10.228s1.573-7.498 4.172-10.228c5.325-5.332 14.962-5.332 20.427 0 2.726 2.73 4.172 6.486 4.172 10.228s-1.444 7.486-4.17 10.088zm57.546 57.802c-2.739 2.73-6.478 4.318-10.214 4.318-3.737 0-7.489-1.59-10.215-4.178-2.599-2.742-4.172-6.486-4.172-10.228s1.573-7.498 4.172-10.228c5.325-5.332 14.962-5.332 20.427 0 2.726 2.73 4.172 6.486 4.172 10.228s-1.444 7.486-4.17 10.088zM665.777 234.7a13.988 13.988 0 0 1-3.218.366c-6.56 0-12.49-4.517-14.007-11.2-1.77-7.751 3.063-15.475 10.819-17.247 44.613-10.213 83.312-22.81 115.805-37.298a433.236 433.236 0 0 1 17.103 23.977c-35.252 16.275-77.685 30.238-126.503 41.402zM50 633zM53 641zM5.414 501zM.14 457c-.047-1.334-.101-2.663-.14-4 .039 1.337.094 2.666.14 4zM.07 447c-.022-1.333-.054-2.663-.07-4 .016 1.335.048 2.665.07 4zM4.345 490zM3.276 480c-.095-1.665-.191-3.329-.276-5 .085 1.671.181 3.335.276 5zM1.208 469c-.071-1.667-.146-3.33-.208-5 .062 1.67.138 3.335.208 5zM13.72 540c-.249-1.66-.482-3.331-.72-5 .238 1.669.471 3.34.72 5zM28 588zM15.837 551c-.29-1.659-.56-3.333-.837-5 .277 1.669.548 3.341.837 5zM10.632 532c-.219-1.661-.424-3.332-.632-5 .208 1.668.414 3.339.632 5zM26 578zM8.557 521zM6.483 511z"/>
                <path fill="#DB3F3D" d="M263.972 829.148c-.099-.002-.209.007-.308.003 9.355 3.962 18.914 7.523 28.604 10.8.85.291 1.708.57 2.56.854 2.21.732 4.417 1.473 6.644 2.173a432.317 432.317 0 0 0 10.794 3.266c.063.018.126.04.19.057a.014.014 0 0 0 .006-.003A431.181 431.181 0 0 0 380.112 860a435.81 435.81 0 0 1-29.32-30.579c-2.63 1.193-5.262 2.385-7.881 3.577-10.314 4.687-20.447 9.277-30.296 13.237-1.374-.394-2.75-.786-4.121-1.193-4.862-1.446-9.672-3.003-14.466-4.602-3.086-1.04-6.195-2.034-9.25-3.142-3.351-1.201-6.632-2.55-9.943-3.836-3.628-1.419-7.267-2.814-10.846-4.327 16.703.41 42.175-11.058 66.973-22.326l1.192-.54c5.981 7.91 12.142 15.674 18.642 23.147 28.203-12.785 56.737-24.964 80.95-23.73 61.364 2.627 93.015-15.553 94.338-16.341 6.84-3.977 9.12-12.688 5.193-19.544-3.927-6.843-12.723-9.202-19.62-5.366-.253.154-26.782 14.781-78.702 12.504-33.008-1.279-67.432 14.16-100.893 29.37C277.445 734.073 245 644.21 245 546.725c0-5.029.117-10.026.288-15.013 30.87 5.175 63.589 8.934 97.164 11.443.117.029.2.113.32.14l78.884 17.41c5.348 1.517 6.586 5.929 6.869 7.756.28 1.813.45 6.379-4.167 9.456a14.383 14.383 0 0 0-5.8 16.145 14.407 14.407 0 0 0 13.795 10.213c89.833 0 175.769-9.582 248.488-27.736a14.374 14.374 0 0 0 10.923-13.783c.084-6.534-4.264-12.294-10.584-14.037l-29.344-8.078 28.204-21.118c.19-.143.275-.361.457-.512 15.597-3.888 30.568-8.102 44.58-12.695 7.57-2.487 11.68-10.607 9.203-18.154-2.491-7.558-10.625-11.69-18.184-9.188-21.506 7.054-45.22 13.292-70.511 18.574-64.09 13.348-137.825 20.402-213.232 20.402-64.397 0-128.058-5.207-185.146-15.078a1.07 1.07 0 0 1 .007-.076c-.962 9.518-1.497 19.155-1.832 28.845-5.858-.982-11.767-1.928-17.483-3.014-7.826-1.489-12.962-9.02-11.47-16.819 1.477-7.812 9.022-12.927 16.847-11.45 4.51.857 9.355 1.467 13.953 2.264C269.357 284.959 453.483 115.1 677.35 115.1c17.694 0 35.101 1.185 52.239 3.248C678.774 70.28 616.314 34.365 546.855 15.332a422.654 422.654 0 0 0-9.762-2.548c-.375-.094-.754-.184-1.13-.276a430.44 430.44 0 0 0-8.79-2.066c-.59-.133-1.185-.257-1.776-.387a433.45 433.45 0 0 0-8.285-1.739c-.8-.158-1.603-.306-2.403-.46-2.588-.5-5.18-.986-7.786-1.44-1.005-.174-2.017-.332-3.024-.5a424.803 424.803 0 0 0-7.296-1.165c-1.205-.18-2.418-.336-3.627-.507-2.268-.318-4.534-.636-6.813-.919-1.409-.174-2.828-.322-4.24-.483-2.103-.241-4.203-.488-6.316-.696-1.623-.162-3.256-.29-4.882-.434-1.926-.169-3.85-.35-5.783-.496-1.866-.139-3.745-.241-5.619-.356-1.717-.106-3.43-.23-5.152-.315-2.241-.112-4.493-.178-6.743-.255-1.374-.047-2.744-.117-4.122-.152C439.664.048 436.014 0 432.352 0 243.172 0 82.397 121.31 23.754 290.25a344.875 344.875 0 0 1 2.578-7.28c.317.282.717.404 1.014.72C50.4 308.276 92.354 331.037 148.664 349.5c7.572 2.487 11.68 10.607 9.204 18.153-1.998 6.07-7.628 9.906-13.695 9.906-1.492 0-2.998-.225-4.49-.716-53.652-17.585-95.787-39.407-123.093-63.56 2.19-7.683 4.521-15.305 7.088-22.818C8.35 334.698 0 382.186 0 431.625c0 3.591.049 7.17.137 10.742.029 1.203.088 2.4.126 3.599.077 2.363.155 4.726.27 7.08.07 1.43.168 2.85.252 4.277.125 2.115.247 4.228.402 6.334.112 1.52.247 3.032.375 4.548.17 2 .337 3.998.533 5.989.153 1.568.326 3.13.497 4.692.211 1.926.425 3.85.661 5.77.197 1.598.408 3.192.622 4.783.25 1.865.508 3.727.782 5.584a425.707 425.707 0 0 0 1.646 10.287c.283 1.639.57 3.275.87 4.907.325 1.762.667 3.517 1.013 5.273.328 1.66.656 3.318 1.003 4.97.357 1.705.735 3.405 1.114 5.103.374 1.681.744 3.365 1.138 5.039.384 1.631.79 3.255 1.193 4.879.427 1.728.848 3.458 1.297 5.178.39 1.498.807 2.985 1.214 4.476.499 1.83.985 3.662 1.508 5.48.333 1.162.692 2.313 1.034 3.47a427.309 427.309 0 0 0 7.733 23.623c.155.43.301.865.458 1.295.87 2.39 1.776 4.764 2.688 7.135.288.751.567 1.508.86 2.257a428.035 428.035 0 0 0 2.76 6.85c.33.8.651 1.604.984 2.403a421.064 421.064 0 0 0 2.92 6.792c.337.768.669 1.54 1.011 2.308a442.35 442.35 0 0 0 3.126 6.84c.326.699.648 1.397.978 2.093a436.57 436.57 0 0 0 3.38 6.974 416.747 416.747 0 0 0 4.572 8.965c.227.434.457.865.686 1.299 1.34 2.53 2.7 5.05 4.087 7.55l.363.645c46.699 83.778 120.554 150.385 209.68 188.034zm42.854-695.488c5.334-5.325 14.988-5.325 20.462 0 2.731 2.726 4.18 6.478 4.18 10.215s-1.45 7.474-4.18 10.075c-2.743 2.724-6.487 4.312-10.23 4.312-3.744 0-7.501-1.588-10.232-4.172-2.604-2.74-4.18-6.478-4.18-10.215s1.576-7.489 4.18-10.215zm-117.97 57.025c11.162-17.512 31.1-24.79 44.53-16.258s15.268 29.643 4.107 47.155c-11.162 17.511-31.097 24.79-44.53 16.258-13.43-8.532-15.268-29.644-4.106-47.155zm-88.631 303.558c-3.571-16.492 3.788-32.073 16.436-34.803 12.648-2.73 25.797 8.427 29.368 24.919 3.57 16.491-3.789 32.073-16.437 34.803-12.648 2.728-25.797-8.43-29.367-24.92z"/>
                <path fill="#DB3F3D" d="M489.784 388.05c-29.416-.837-47.132 8.923-63.28 17.222-18.038 9.25-33.58 17.208-64.677 12.03-7.905-1.404-15.329 4.029-16.628 11.944-1.313 7.903 4.01 15.393 11.885 16.711 8.47 1.418 16.135 2.043 23.163 2.043 26.551 0 43.8-8.852 59.399-16.853 14.68-7.532 27.398-14.058 48.05-14.058.621 0 1.383.042 1.848.015 7.876 0 14.328-6.356 14.454-14.285.127-8.03-6.239-14.642-14.214-14.769zM599.5 377.072c-6.272-4.912-15.316-3.807-20.223 2.407-2.996 3.793-18.873 8.102-32.684 8.887-7.931.434-14.007 7.194-13.571 15.086.421 7.642 6.765 13.548 14.36 13.548.266 0 .52 0 .788-.014 9.337-.504 40.827-3.415 53.75-19.789 4.92-6.228 3.824-15.242-2.42-20.125z"/>
                <ellipse cx="212.5" cy="206.5" fill="#A03939" rx="37.5" ry="28.5" transform="rotate(122.471 212.5 206.5)"/>
                <ellipse cx="123.5" cy="489.5" fill="#A03939" rx="23.5" ry="30.5" transform="rotate(-12.199 123.5 489.5)"/>
                <path fill="#DB3F3D" d="M652.205 335.05c-2.62 2.765-4.205 6.57-4.205 10.36 0 3.79 1.586 7.58 4.205 10.359 2.748 2.622 6.529 4.231 10.295 4.231s7.533-1.61 10.295-4.374c2.748-2.635 4.205-6.425 4.205-10.217 0-3.791-1.46-7.594-4.205-10.359-5.51-5.4-15.223-5.4-20.59 0zM709.205 393.05c-2.62 2.765-4.205 6.57-4.205 10.36 0 3.79 1.586 7.58 4.205 10.359 2.748 2.622 6.529 4.231 10.295 4.231s7.533-1.61 10.295-4.374c2.748-2.635 4.205-6.425 4.205-10.217 0-3.791-1.46-7.594-4.205-10.359-5.51-5.4-15.223-5.4-20.59 0zM349.205 580.05c-2.62 2.765-4.205 6.57-4.205 10.36 0 3.79 1.586 7.58 4.205 10.359 2.748 2.622 6.529 4.231 10.295 4.231s7.533-1.61 10.295-4.374c2.748-2.635 4.205-6.425 4.205-10.217 0-3.791-1.46-7.594-4.205-10.359-5.508-5.4-15.223-5.4-20.59 0zM537.205 652.05c-2.62 2.765-4.205 6.57-4.205 10.36 0 3.79 1.586 7.58 4.205 10.359 2.748 2.622 6.529 4.231 10.295 4.231s7.533-1.61 10.295-4.374c2.748-2.635 4.205-6.425 4.205-10.217 0-3.791-1.46-7.594-4.205-10.359-5.51-5.4-15.223-5.4-20.59 0z"/>
                <path fill="#A03939" d="M216.249 512.876c-1.44 7.912 3.52 15.553 11.079 17.066 5.52 1.102 11.228 2.062 16.887 3.058.322-9.832.838-19.611 1.77-29.268.005-.058.008-.119.015-.177-4.44-.808-9.123-1.427-13.477-2.297-7.562-1.499-14.847 3.691-16.274 11.618zM139.095 377.281a14.24 14.24 0 0 0 4.49.719 14.416 14.416 0 0 0 13.694-9.949c2.477-7.577-1.632-15.734-9.204-18.232-56.31-18.542-98.265-41.402-121.318-66.097-.296-.316-.698-.438-1.015-.722a347.367 347.367 0 0 0-2.578 7.312l-.075.215c-2.567 7.546-4.898 15.202-7.089 22.917 27.307 24.26 69.442 46.176 123.095 63.837zM331.529 807c-.393.185-.789.369-1.181.554-24.566 11.559-49.799 23.324-66.348 22.904 3.546 1.551 7.151 2.985 10.745 4.439 3.28 1.317 6.53 2.7 9.85 3.935 3.026 1.137 6.105 2.157 9.164 3.223 4.749 1.64 9.514 3.238 14.33 4.722 1.357.419 2.72.819 4.084 1.223 9.756-4.063 19.795-8.771 30.012-13.58 2.595-1.223 5.202-2.446 7.808-3.67.002 0 .003 0 .007-.003l-.002-.002c-6.439-7.666-12.544-15.63-18.469-23.745z"/>
                <path fill="#DB3F3D" d="M775.788 170c-32.696 14.547-71.64 27.19-116.534 37.443-7.805 1.78-12.667 9.533-10.887 17.315 1.528 6.708 7.494 11.242 14.096 11.242 1.075 0 2.15-.114 3.237-.367 49.125-11.208 91.825-25.225 127.3-41.563A435.889 435.889 0 0 0 775.788 170z"/>
            </g>
        </g>
    </g>
</svg>
