<svg xmlns="http://www.w3.org/2000/svg" width="19" height="18" viewBox="0 0 19 18">
    <path fill="#FFF" fill-rule="evenodd" stroke="#EF473A" d="M17.674 8.118c.31-.304.4-.664.266-1.077-.133-.414-.42-.653-.864-.719l-4.585-.653-2.027-4.081C10.264 1.196 9.944 1 9.5 1c-.443 0-.764.196-.964.588L6.51 5.669l-4.585.653c-.443.066-.731.305-.864.719-.133.413-.044.773.266 1.077l3.323 3.168-.798 4.506c-.066.413.078.75.432 1.012.177.13.388.196.631.196.178 0 .344-.044.499-.13L9.5 14.746l4.087 2.122c.155.087.321.131.499.131.243 0 .454-.065.631-.196.354-.261.498-.599.432-1.012l-.798-4.506 3.323-3.168z"/>
</svg>
