<svg xmlns="http://www.w3.org/2000/svg" width="13" height="13" viewBox="0 0 13 13">
    <path fill="#A3A3A3" fill-rule="evenodd" d="M12.062 11.656l-.875-2.764h-.962l.525 2.699H1.375l.525-2.7H.938l-.875 2.765c-.108.351-.077.652.094.902.17.25.431.375.781.375h10.249c.35 0 .61-.125.781-.375.171-.25.202-.55.094-.902zM9.7 3.233c0-.446-.084-.865-.253-1.256A3.266 3.266 0 0 0 7.723.253 3.147 3.147 0 0 0 6.467 0C6.02 0 5.6.084 5.21.253a3.265 3.265 0 0 0-1.724 1.724c-.168.391-.253.81-.253 1.256 0 .775.169 1.548.506 2.318.336.77.707 1.463 1.111 2.078.404.614.775 1.113 1.111 1.496l.506.575.505-.575c.337-.383.707-.882 1.111-1.496.405-.615.775-1.308 1.112-2.078.337-.77.505-1.543.505-2.318zm-4.792-.006c0-.443.158-.822.474-1.138a1.56 1.56 0 0 1 1.142-.472c.446 0 .826.157 1.143.472.316.316.474.695.474 1.138 0 .452-.158.835-.474 1.15a1.56 1.56 0 0 1-1.143.473 1.56 1.56 0 0 1-1.142-.473 1.562 1.562 0 0 1-.474-1.15z"/>
</svg>
