<svg xmlns="http://www.w3.org/2000/svg" xmlns:xlink="http://www.w3.org/1999/xlink" width="25" height="24" viewBox="0 0 25 24"><defs><path id="eui0a" d="M1376.79 2196.23a9.77 9.77 0 0 1-2.9 4.97l-7.45 6.8-7.32-6.8a9.77 9.77 0 0 1-2.91-4.97 6.3 6.3 0 0 1-.18-2.27c.3-3.46 2.7-5.96 5.69-5.96 1.96 0 3.7 1.07 4.72 2.85a5.63 5.63 0 0 1 4.84-2.85c3 0 5.38 2.5 5.69 5.96.02.15.12.96-.18 2.27zm-.62-2.14c-.27-3.07-2.32-5.27-4.89-5.27a4.88 4.88 0 0 0-4.47 3.11l-.37.9-.37-.9a4.74 4.74 0 0 0-4.35-3.1c-2.57 0-4.62 2.2-4.89 5.22v.04s-.12.7.17 1.95a8.94 8.94 0 0 0 2.66 4.55l6.78 6.3 6.9-6.3a8.94 8.94 0 0 0 2.66-4.55c.29-1.24.17-1.94.17-1.95zm-13.3-3.16a.4.4 0 0 1-.41.4 3.28 3.28 0 0 0-3.23 3.32.4.4 0 0 1-.4.41.4.4 0 0 1-.41-.41 4.1 4.1 0 0 1 4.04-4.14c.22 0 .4.19.4.42z"/></defs><g><g transform="translate(-1354 -2186)"><use fill="#888" xlink:href="#eui0a"/></g></g></svg>