<?xml version="1.0" standalone="no"?><!DOCTYPE svg PUBLIC "-//W3C//DTD SVG 1.1//EN" "http://www.w3.org/Graphics/SVG/1.1/DTD/svg11.dtd"><svg t="1512921783162" class="icon" style="" viewBox="0 0 1024 1024" version="1.1" xmlns="http://www.w3.org/2000/svg" p-id="2833" xmlns:xlink="http://www.w3.org/1999/xlink" width="200" height="200"><defs><style type="text/css"></style></defs><path d="M512 128C357.76 128 232.192 260.48 232.192 423.36c0 153.728 232.512 431.616 258.944 462.848A27.392 27.392 0 0 0 512 896a27.392 27.392 0 0 0 20.864-9.792c26.432-31.232 258.944-309.12 258.944-462.848C791.808 260.48 666.24 128 512 128z m0 693.568c-77.632-95.68-223.808-297.088-223.808-398.208C288.192 293.12 388.48 187.072 512 187.072c123.456 0 223.808 105.984 223.808 236.288 0 101.056-146.176 302.4-223.808 398.208zM512 238.72c-84.928 0-153.856 72.96-153.856 162.496 0 89.6 69.056 162.432 153.856 162.432s153.856-72.96 153.856-162.432c0-89.6-68.928-162.496-153.856-162.496z m0 265.856c-54.016 0-97.92-46.4-97.92-103.36S457.984 297.792 512 297.792s97.92 46.336 97.92 103.424c0 57.024-43.904 103.36-97.92 103.36z" p-id="2834" fill="#888888"></path></svg>