<svg xmlns="http://www.w3.org/2000/svg" width="14" height="10" viewBox="0 0 14 10">
    <path fill="#E94347" fill-rule="evenodd" d="M5.6 6.533h2.8v-.7h-.933V2.567h-.832l-1.079.999.562.583c.204-.18.338-.318.4-.416h.015v2.1H5.6v.7zm3.58-2.902c.102.35.153.695.153 1.036a3.926 3.926 0 0 1-.587 2.013 2.256 2.256 0 0 1-.74.736C7.7 7.606 7.365 7.7 7 7.7s-.7-.095-1.006-.284a2.256 2.256 0 0 1-.74-.737 3.926 3.926 0 0 1-.587-2.012 3.926 3.926 0 0 1 .587-2.013c.187-.301.433-.547.74-.736.306-.19.641-.285 1.006-.285s.7.095 1.006.285c.307.19.553.435.74.736.188.302.332.627.434.977zm3.887 2.902V2.8c-.516 0-.956-.182-1.32-.547A1.798 1.798 0 0 1 11.2.933H2.8c0 .516-.182.956-.547 1.32a1.798 1.798 0 0 1-1.32.547v3.733c.516 0 .956.183 1.32.547.365.365.547.805.547 1.32h8.4c0-.515.182-.955.547-1.32a1.798 1.798 0 0 1 1.32-.547zM14 .467v8.4a.448.448 0 0 1-.139.328.448.448 0 0 1-.328.138H.467a.448.448 0 0 1-.328-.138A.448.448 0 0 1 0 8.867v-8.4C0 .34.046.23.139.139A.448.448 0 0 1 .467 0h13.066c.127 0 .236.046.328.139A.448.448 0 0 1 14 .467z"/>
</svg>
