<?xml version="1.0" standalone="no"?><!DOCTYPE svg PUBLIC "-//W3C//DTD SVG 1.1//EN" "http://www.w3.org/Graphics/SVG/1.1/DTD/svg11.dtd"><svg t="1512789060467" class="icon" style="" viewBox="0 0 1024 1024" version="1.1" xmlns="http://www.w3.org/2000/svg" p-id="1392" xmlns:xlink="http://www.w3.org/1999/xlink" width="200" height="200"><defs><style type="text/css"></style></defs><path d="M894.944 895.488l-765.92 0c-35.264 0-63.808-28.608-63.808-63.84l0-351.008c0-35.296 28.576-63.84 63.808-63.84l33.76-1.792c0-52.128 15.872-84 47.616-119.488s71.104-53.28 118.144-53.28c22.304 0 47.04 3.776 74.144 11.328 0 0 58.944 19.584 99.872 19.584 62.432 0 105.056-27.36 127.68-82.112 10.624-26.336 21.44-39.52 32.448-39.52 15.744 0 23.68 7.36 23.68 22.048 0 26.016-14.048 54.784-42.176 86.272-37.76 42.784-84.192 64.192-139.392 64.192-42.848 0-116.288-20.096-116.288-20.096-29.824-7.232-51.104-10.816-63.776-10.816-30.496 0-56.672 13.024-78.432 39.136s-32.672 47.2-32.672 83.2l681.312 1.344c35.264 0 63.872 28.576 63.872 63.84l0 351.04c0 35.232-28.64 63.808-63.872 63.808zM926.88 480.64c0-17.664-14.304-31.936-31.936-31.936l-765.92 0c-17.632 0-31.904 14.272-31.904 31.936l0 351.04c0 17.632 14.272 31.936 31.904 31.936l765.92 0c17.632 0 31.936-14.304 31.936-31.936l0-351.04zM799.072 641.184l-62.816 0 0 61.824-63.808 0 0-61.824-63.872 0 0 61.824-65.824 0 0-61.824-61.824 0 0 61.824-63.84 0 0-61.824-63.808 0 0 61.824-63.872 0 0-61.824-64.8 0 0 61.824-63.808 0 0-62.816 64.8 0 0-63.84-64.8 0 0-62.816 63.808 0 0 61.824 64.8 0 0-61.824 63.84 0 0 61.824 63.808 0 0-61.824 63.84 0 0 61.824 61.824 0 0-61.824 65.824 0 0 61.824 63.872 0 0-61.824 63.808 0 0 61.824 62.816 0 0-61.824 63.808 0 0 62.816-62.816 0 0 63.84 62.816 0 0 62.816-63.808 0 0-61.824zM353.28 576.352l-64.832 0 0 63.84 64.8 0 0-63.84zM479.936 576.352l-63.84 0 0 63.84 63.84 0 0-63.84zM607.552 576.352l-63.808 0 0 63.84 63.808 0 0-63.84zM735.264 576.352l-63.904 0 0 63.84 63.872 0 0-63.84zM738.24 799.744l-450.784 0 0-62.848 450.784 0 0 62.848z" p-id="1393" fill="#fb236a"></path></svg>