<svg xmlns="http://www.w3.org/2000/svg" xmlns:xlink="http://www.w3.org/1999/xlink" width="192" height="54" viewBox="0 0 192 54">
    <defs>
        <path id="a" d="M.849 1.262c.323-.37 1.015-.246 1.511.27.497.517.643 1.266.32 1.636a.552.552 0 0 0 .017.732c.091.095.209.142.326.142.125 0 .25-.053.343-.16.689-.79.53-2.18-.352-3.099C2.13-.136.852-.24.164.55a.552.552 0 0 0 .015.731c.19.197.49.19.67-.018z"/>
        <path id="c" d="M3.212.451C2.591-.216 1.464-.115.701.678c-.763.792-.879 1.98-.258 2.648a.48.48 0 0 0 .7.006.545.545 0 0 0 .007-.74c-.23-.247-.115-.793.246-1.168.36-.374.88-.486 1.11-.238.191.206.505.209.7.006a.545.545 0 0 0 .006-.74z"/>
        <path id="e" d="M.542 1.076A.494.494 0 0 0 .897.92a.544.544 0 0 0 0-.743.494.494 0 0 0-.355-.155.494.494 0 0 0-.355.155.544.544 0 0 0 0 .743.493.493 0 0 0 .355.155z"/>
        <path id="g" d="M.638 26.342c-.276 0-.5-.391-.5-.874V1.053c0-.483.224-.874.5-.874.275 0 .498.391.498.874v24.415c0 .483-.223.874-.498.874z"/>
        <path id="i" d="M5.845.662C3.82 1.789.14.662.14.662v7.807s3.68 1.128 5.705 0c2.026-1.128 4.714 0 4.714 0V.662S7.87-.466 5.845.662z"/>
    </defs>
    <g fill="none" fill-rule="evenodd">
        <path fill="#D4D2D5" d="M121.995 38.884a2.994 2.994 0 0 0-1.137-1.193c-.508-.31-1.087-.465-1.737-.465-.3 0-.6.033-.899.1-.3.067-.566.176-.8.327a1.77 1.77 0 0 0-.562.578c-.141.234-.212.51-.212.829 0 .553.225.976.675 1.269.45.293 1.157.54 2.123.74 1.383.286 2.403.7 3.06 1.245.659.544.988 1.277.988 2.198 0 .67-.13 1.235-.387 1.696-.259.46-.596.837-1.012 1.13a4.075 4.075 0 0 1-1.412.628 6.791 6.791 0 0 1-1.587.189c-.882 0-1.74-.184-2.573-.553a4.773 4.773 0 0 1-2.049-1.733l1.35-1.005c.3.519.74.954 1.324 1.306a3.654 3.654 0 0 0 1.923.528c.367 0 .717-.034 1.05-.1.333-.068.624-.185.874-.353.25-.167.45-.38.6-.64.15-.26.225-.582.225-.968 0-.62-.296-1.084-.887-1.394-.591-.31-1.445-.599-2.561-.867-.35-.083-.72-.188-1.112-.314a3.81 3.81 0 0 1-1.087-.552 3.001 3.001 0 0 1-.824-.917c-.217-.369-.325-.83-.325-1.382 0-.603.116-1.118.35-1.545a3.08 3.08 0 0 1 .937-1.056 4.166 4.166 0 0 1 1.336-.615 5.955 5.955 0 0 1 1.55-.201c.816 0 1.607.184 2.373.553.766.368 1.34.887 1.724 1.557l-1.3.98zm10.053 15h-1.699V36.094h1.7v2.035h.074a4.65 4.65 0 0 1 1.936-1.746c.808-.393 1.629-.59 2.462-.59.916 0 1.744.159 2.486.477a5.663 5.663 0 0 1 1.898 1.307 5.905 5.905 0 0 1 1.225 1.96c.291.753.437 1.565.437 2.436s-.146 1.684-.437 2.437a5.905 5.905 0 0 1-1.225 1.96 5.663 5.663 0 0 1-1.898 1.307c-.742.318-1.57.477-2.486.477-.833 0-1.654-.197-2.462-.59a4.764 4.764 0 0 1-1.936-1.696h-.075v8.014zm8.72-11.91c0-.653-.1-1.268-.3-1.846a4.476 4.476 0 0 0-.862-1.508 4.065 4.065 0 0 0-1.387-1.017c-.55-.251-1.174-.377-1.873-.377-.65 0-1.25.121-1.8.364a4.318 4.318 0 0 0-1.423 1.005c-.4.427-.713.93-.937 1.508a5.116 5.116 0 0 0-.338 1.871c0 .67.113 1.294.338 1.872a4.5 4.5 0 0 0 .937 1.495 4.401 4.401 0 0 0 3.223 1.357c.7 0 1.324-.122 1.873-.365a3.929 3.929 0 0 0 1.387-1.005c.375-.427.662-.93.862-1.507.2-.578.3-1.193.3-1.847zm16.585-1.708c0-1.022-.267-1.784-.8-2.286-.533-.503-1.307-.754-2.323-.754-.7 0-1.35.126-1.95.377-.599.251-1.107.586-1.523 1.005l-.95-1.13c.483-.487 1.12-.889 1.912-1.207.79-.318 1.686-.477 2.685-.477a5.79 5.79 0 0 1 1.774.264c.55.175 1.033.44 1.45.791.416.352.74.796.974 1.332.233.536.35 1.164.35 1.884v5.15c0 .453.016.922.05 1.407.033.486.083.896.15 1.231h-1.524c-.05-.284-.092-.594-.125-.93a9.902 9.902 0 0 1-.05-.98h-.05c-.533.788-1.137 1.353-1.812 1.697-.674.343-1.486.515-2.436.515a5.41 5.41 0 0 1-1.386-.189 3.873 3.873 0 0 1-1.3-.615 3.473 3.473 0 0 1-.974-1.106c-.258-.452-.387-1.005-.387-1.658 0-.904.229-1.62.687-2.148.458-.527 1.07-.921 1.836-1.18.766-.26 1.645-.428 2.636-.503a40.71 40.71 0 0 1 3.086-.113v-.377zm-.5 1.708c-.7 0-1.403.03-2.111.088a9.163 9.163 0 0 0-1.924.352c-.575.176-1.045.431-1.412.766-.366.335-.55.78-.55 1.332 0 .419.08.77.238 1.055.158.285.37.515.637.691.267.176.562.301.887.377.325.075.654.113.987.113.6 0 1.133-.105 1.599-.314.466-.21.858-.494 1.174-.854a3.78 3.78 0 0 0 .725-1.244c.166-.469.25-.963.25-1.482v-.88h-.5zm17.518-3.19c-.283-.453-.695-.825-1.236-1.118a3.64 3.64 0 0 0-1.762-.44c-.683 0-1.299.121-1.849.364s-1.02.578-1.411 1.005c-.392.427-.692.93-.9 1.508a5.482 5.482 0 0 0-.312 1.871c0 .67.104 1.29.312 1.86.208.569.504 1.067.887 1.494.383.428.85.763 1.4 1.005.549.243 1.165.365 1.848.365.75 0 1.383-.143 1.9-.427a3.892 3.892 0 0 0 1.273-1.106l1.275.955a5.576 5.576 0 0 1-1.837 1.482c-.724.369-1.595.553-2.61.553-.95 0-1.808-.155-2.574-.465a5.695 5.695 0 0 1-1.962-1.294 5.864 5.864 0 0 1-1.261-1.96 6.602 6.602 0 0 1-.45-2.462c0-.887.15-1.708.45-2.462.3-.754.72-1.407 1.261-1.96a5.695 5.695 0 0 1 1.962-1.293c.766-.31 1.624-.465 2.573-.465.783 0 1.578.171 2.386.515.808.343 1.462.85 1.962 1.52l-1.325.955zm15.905 2.286c-.05-1.106-.404-2.023-1.062-2.751-.658-.729-1.595-1.093-2.81-1.093-.567 0-1.092.105-1.575.314-.483.21-.907.494-1.274.854-.366.36-.658.77-.874 1.231-.217.46-.342.942-.375 1.445h7.97zm1.724.553v.376c0 .134-.008.277-.025.428h-9.694a4.61 4.61 0 0 0 .35 1.658c.216.519.516.971.9 1.356.382.386.832.691 1.348.917.517.227 1.075.34 1.674.34.883 0 1.645-.206 2.286-.616.642-.41 1.129-.883 1.462-1.42l1.274 1.006c-.7.887-1.47 1.524-2.31 1.909a6.432 6.432 0 0 1-2.712.578c-.866 0-1.67-.155-2.41-.465a5.646 5.646 0 0 1-1.912-1.294 6.133 6.133 0 0 1-1.262-1.96 6.444 6.444 0 0 1-.462-2.462c0-.887.15-1.708.45-2.462.3-.754.716-1.407 1.249-1.96a5.744 5.744 0 0 1 4.197-1.758c.916 0 1.724.155 2.424.465.7.31 1.282.728 1.749 1.256.466.527.82 1.143 1.062 1.846.241.704.362 1.458.362 2.262z"/>
        <path fill="#E94347" d="M35.602 32.987h-5.437V30.22h14.032v2.768H38.76V48.04h-3.158V32.987zm17.91 13.517h-.075c-.3.537-.785.977-1.453 1.321-.669.344-1.429.516-2.28.516-.485 0-.99-.063-1.517-.188a4.502 4.502 0 0 1-1.453-.63 3.651 3.651 0 0 1-1.102-1.157c-.293-.479-.439-1.07-.439-1.775 0-.906.255-1.628.764-2.165.51-.537 1.165-.948 1.967-1.233a11.044 11.044 0 0 1 2.669-.566 30.512 30.512 0 0 1 2.869-.139v-.302c0-.755-.272-1.313-.814-1.674-.543-.36-1.19-.54-1.942-.54-.635 0-1.245.133-1.83.402-.584.268-1.069.596-1.453.981l-1.553-1.837a6.78 6.78 0 0 1 2.367-1.435 8.038 8.038 0 0 1 2.72-.478c1.068 0 1.95.151 2.643.453.693.302 1.24.696 1.641 1.183.4.487.68 1.032.84 1.636.158.604.237 1.208.237 1.813v7.35h-2.806v-1.536zm-.05-3.977h-.677c-.484 0-.994.021-1.528.063a6.61 6.61 0 0 0-1.478.277 3.152 3.152 0 0 0-1.128.604c-.3.26-.451.617-.451 1.07 0 .285.063.524.188.717.125.193.288.348.488.466.2.117.426.201.677.251.25.05.501.076.752.076 1.035 0 1.82-.277 2.355-.83.535-.555.802-1.31.802-2.266v-.428zm8.764-13.517h3.007v19.03h-3.007V29.01zm17.483 11.78a3.74 3.74 0 0 0-.162-1.107 2.538 2.538 0 0 0-.514-.932 2.508 2.508 0 0 0-.89-.641c-.359-.16-.78-.24-1.265-.24-.902 0-1.666.273-2.293.818-.626.546-.973 1.246-1.04 2.102h6.164zm3.007 1.36v.402c0 .134-.008.269-.025.403h-9.146a3.002 3.002 0 0 0 1.103 2.127c.317.26.676.465 1.077.616.401.152.819.227 1.253.227.752 0 1.387-.138 1.905-.415a3.572 3.572 0 0 0 1.277-1.146l2.005 1.611c-1.186 1.611-2.907 2.417-5.162 2.417-.935 0-1.796-.147-2.58-.44a6.086 6.086 0 0 1-2.043-1.247 5.616 5.616 0 0 1-1.353-1.976c-.326-.78-.489-1.665-.489-2.655 0-.973.163-1.859.49-2.656a6.048 6.048 0 0 1 1.34-2.038 5.994 5.994 0 0 1 2.017-1.31 6.723 6.723 0 0 1 2.518-.465c.835 0 1.608.138 2.318.415.71.277 1.324.688 1.842 1.234.517.545.922 1.225 1.215 2.039.292.813.438 1.766.438 2.856zm5.256-6.193h2.857v1.939h.05c.267-.605.73-1.137 1.39-1.599.66-.461 1.441-.692 2.343-.692.785 0 1.458.138 2.017.415a3.98 3.98 0 0 1 1.378 1.095c.36.453.623.974.79 1.56.167.588.25 1.192.25 1.813v7.551H96.04v-6.695a8.61 8.61 0 0 0-.075-1.108 2.999 2.999 0 0 0-.325-1.044 2.167 2.167 0 0 0-.69-.768c-.292-.201-.68-.302-1.165-.302-.484 0-.902.097-1.253.29-.35.193-.638.44-.864.742-.226.302-.397.65-.514 1.045a4.185 4.185 0 0 0-.175 1.195v6.645h-3.007V35.957zm15.204 2.417v-2.417h2.104V32.46h2.957v3.498h3.007v2.417h-3.007v5.613c0 .537.096.982.288 1.334.192.352.623.529 1.29.529.201 0 .418-.021.652-.063.234-.042.443-.105.627-.19l.1 2.367c-.267.1-.585.18-.952.239a6.675 6.675 0 0 1-1.053.088c-.802 0-1.453-.113-1.954-.34-.501-.226-.898-.537-1.19-.931a3.455 3.455 0 0 1-.602-1.36 7.937 7.937 0 0 1-.163-1.648v-5.638h-2.104z"/>
        <g transform="translate(0 -2)">
            <path fill="#D0CED1" fill-rule="nonzero" d="M.715 52.039c9.315-6.054 18.603-5.877 27.933.535l.414-.665c-9.574-6.58-19.178-6.762-28.744-.546l.397.676z"/>
            <g transform="rotate(1 -2845.14 1136.773)">
                <mask id="b" fill="#fff">
                    <use xlink:href="#a"/>
                </mask>
                <path fill="#D0CED1" d="M-.91 5.052h5.646V-.991H-.909z" mask="url(#b)"/>
            </g>
            <g transform="rotate(1 -2967.908 358.33)">
                <mask id="d" fill="#fff">
                    <use xlink:href="#c"/>
                </mask>
                <path fill="#D0CED1" d="M-.877 4.45h5.152V-.957H-.877z" mask="url(#d)"/>
            </g>
            <g transform="rotate(1 -2786.549 785.616)">
                <mask id="f" fill="#fff">
                    <use xlink:href="#e"/>
                </mask>
                <path fill="#D0CED1" d="M-.964 2.132h3.012v-3.165H-.964z" mask="url(#f)"/>
            </g>
            <g transform="translate(4.2 17.443)">
                <g transform="translate(3.553 7.787)">
                    <rect width="13.958" height="15.072" fill="#D8D8D8" rx="6.979"/>
                    <path fill="#E94347" d="M0 5.946h13.958v1.659H0zM0 8.711h13.958v1.659H0z"/>
                </g>
                <path fill="#D4D2D5" d="M17.187 26.773a10.63 10.63 0 0 0-.006-.415h-3.415c.032.136.06.275.086.415h3.335zm-.011.415c-.035.77-.154 1.512-.346 2.213h-2.88a9.535 9.535 0 0 0-.033-2.213h3.259zM3.74 26.912a10.61 10.61 0 0 1 0-.415h3.388c-.03.136-.056.274-.08.415H3.742zm.016.414c.043.721.159 1.417.339 2.075h2.88a9.535 9.535 0 0 1 .015-2.075H3.757zm13.403-1.383c-.31-4.264-3.19-7.606-6.697-7.606-3.546 0-6.45 3.414-6.706 7.745h3.472c.55-2.037 1.79-3.458 3.234-3.458 1.41 0 2.628 1.357 3.195 3.32h3.502z"/>
                <path fill="#FFF" stroke="#CACACA" d="M5.541 30.646c1.378 0 2.496-.473 2.496-1.057 0-.583-1.248-1.433-2.496-1.433s-2.496.85-2.496 1.433c0 .584 1.118 1.057 2.496 1.057z"/>
                <path fill="#E94347" d="M5.541 30.646c1.378 0 2.496-.496 2.496-1.107-2.085.715-2.496 1.107-4.992 0 0 .611 1.118 1.107 2.496 1.107z"/>
                <path fill="#FFF" stroke="#CACACA" d="M15.523 30.646c1.379 0 2.496-.473 2.496-1.057 0-.583-1.248-1.433-2.496-1.433s-2.495.85-2.495 1.433c0 .584 1.117 1.057 2.495 1.057z"/>
                <path fill="#E94347" d="M15.523 30.646c1.379 0 2.496-.496 2.496-1.107-2.084.715-2.496 1.107-4.991 0 0 .611 1.117 1.107 2.495 1.107z"/>
                <path fill="#FFF" stroke="#CACACA" d="M1.582 20.983C.135 19.014-.402 16.59.353 14.516c1.277-3.509 5.769-5.101 10.067-3.587a9.382 9.382 0 0 1-2.783-2.755c.34.215.698.415 1.072.598 4.14 2.02 9.237 2.538 10.744-.553.689-1.412 1.267-3.834.474-5.697a5.12 5.12 0 0 0-.068-.152l.345-.073.37-.046.247.376c1.32 2.024 2.16 4.416 1.169 6.447-1.04 2.132-3.286 3.772-5.843 3.883a5.153 5.153 0 0 1-1.214-.102 4.895 4.895 0 0 1 1.34 3.083 5.575 5.575 0 0 1-5.396 5.91 13.425 13.425 0 0 1-.596.004 5.577 5.577 0 0 1-5.487-5.914 4.892 4.892 0 0 1 1.151-2.873 7.307 7.307 0 0 0-1.002.382c-.922.435-1.62 1.111-1.97 2.071-.473 1.3-.236 2.855.498 4.352l.053-.03.029.051c.269.486.608.967-.157 1.55-.765.583-1.572.043-1.84-.442l.026-.016z"/>
                <path fill="#DE4146" d="M14.384 9.305a.99.99 0 0 1 .843.98c0 .582-.405 1.087-.974 1.213-1.678.373-2.852.56-3.524.56-.676 0-1.897-.19-3.663-.568a1.233 1.233 0 0 1-.975-1.206.99.99 0 0 1 .968-.99 6.432 6.432 0 0 0 3.67 1.132 6.433 6.433 0 0 0 3.655-1.121z"/>
                <ellipse cx="10.659" cy="5.652" fill="#FFF" stroke="#CACACA" rx="6.091" ry="5.652"/>
                <ellipse cx="10.786" cy="6.029" fill="#D4D2D5" rx="4.695" ry="4.019"/>
                <path fill="#D4D2D5" fill-rule="nonzero" d="M10.786 10.425c-2.792 0-5.076-1.955-5.076-4.396s2.284-4.396 5.076-4.396 5.076 1.955 5.076 4.396c0 2.44-2.284 4.396-5.076 4.396zm0-.754c2.394 0 4.314-1.644 4.314-3.642 0-1.999-1.92-3.643-4.314-3.643S6.472 4.03 6.472 6.03c0 1.998 1.92 3.642 4.314 3.642z"/>
                <ellipse cx="7.233" cy="15.197" fill="#E6E6E6" rx="1.142" ry="1.13"/>
                <path fill="#E6E6E6" d="M9.644 14.067h4.822v2.01H9.644zM9.644 16.579h4.822v1H9.644zM9.644 17.584h4.822v1H9.644zM9.644 18.588h4.822v1H9.644z"/>
            </g>
            <g>
                <g transform="rotate(-41 16.963 -12.19)">
                    <mask id="h" fill="#fff">
                        <use xlink:href="#g"/>
                    </mask>
                    <path fill="#D0CED1" d="M-1.106 27.617h3.488V-1.096h-3.488z" mask="url(#h)"/>
                </g>
                <g transform="rotate(-41 18.51 -14.288)">
                    <mask id="j" fill="#fff">
                        <use xlink:href="#i"/>
                    </mask>
                    <path fill="#E94347" d="M-1.105 10.245h12.909v-11.36h-12.91z" mask="url(#j)"/>
                </g>
            </g>
            <circle cx="12.275" cy="23.581" r="1" fill="#FFF"/>
            <circle cx="13.082" cy="25.357" r="1" fill="#FFF"/>
        </g>
    </g>
</svg>
