<svg xmlns="http://www.w3.org/2000/svg" xmlns:xlink="http://www.w3.org/1999/xlink" width="68" height="64" viewBox="0 0 68 64"><defs><path id="gloza" d="M826.55 1125.82l-1.08 4.36a1.08 1.08 0 1 1-2.1-.53l1.08-4.36c.14-.58.73-.94 1.31-.8.58.15.94.74.8 1.33zm-14.46-23.22l-31.42-13.08c-.4-.16-.67-.56-.67-1v-1.1c0-.6.49-1.08 1.08-1.08.6 0 1.09.49 1.09 1.09v.36l30.33 12.62 11.5-4.79a1.1 1.1 0 1 1 .83 2.01l-11.92 4.97a1.06 1.06 0 0 1-.82 0zm12.8 12.7c-2.4 1.2-6.52 2.63-12.39 2.63-16.79 0-21.4-11.1-21.59-11.58a1.1 1.1 0 0 1-.08-.4v-7.63a1.09 1.09 0 1 1 2.17 0v7.4c.62 1.36 4.97 9.56 18.42 9.99v-9.76c0-.6.48-1.1 1.08-1.1.6 0 1.08.5 1.08 1.1v9.77c4.86-.16 8.3-1.35 10.36-2.38a1.09 1.09 0 0 1 .96 1.95zm4.94 11.34v3.27c0 .6-.48 1.09-1.08 1.09-.6 0-1.08-.49-1.08-1.09v-3.27a1.09 1.09 0 1 1 2.16 0zm15.17-39.21v1.09c0 .44-.26.84-.67 1l-14.5 6v13.52a11.15 11.15 0 0 0 2.17-3.3v-7.42a1.09 1.09 0 1 1 2.17 0v7.63c0 .12-.02.24-.06.35-.05.14-1.17 3.29-4.28 5.65v6.18a3.26 3.26 0 0 1-1.08 6.33 3.26 3.26 0 0 1-1.08-6.33v-26.84l-12.37-4.64c-.75.48-1.72.78-2.8.78-2.43 0-4.33-1.44-4.33-3.27s1.9-3.27 4.33-3.27 4.33 1.44 4.33 3.27c0 .24-.03.48-.1.7l11.92 4.48 12.43-5.18-28.58-11.9-28.58 11.9 28.58 11.9 10.95-4.56a1.09 1.09 0 0 1 .83 2.01l-11.37 4.73a1.06 1.06 0 0 1-.82 0l-31.42-13.07a1.09 1.09 0 0 1 0-2.02l31.42-13.07c.26-.1.56-.1.82 0l31.42 13.07a1.09 1.09 0 0 1 0 2.02l-14.5 6.03v1.97l13-5.38v-.36a1.09 1.09 0 1 1 2.17 0zm-30.33-3.27c0-.44-.85-1.09-2.17-1.09-1.32 0-2.17.65-2.17 1.09 0 .44.85 1.09 2.17 1.09 1.32 0 2.17-.65 2.17-1.09zm15.16 37.04c0-.6-.48-1.1-1.08-1.1a1.09 1.09 0 0 0 0 2.19c.6 0 1.08-.5 1.08-1.1zm4.3 8.45a1.09 1.09 0 0 1-1.05 1.35c-.48 0-.92-.33-1.05-.82l-1.08-4.36c-.15-.59.2-1.18.79-1.32.58-.15 1.17.2 1.31.79z"/></defs><g><g transform="translate(-779 -1068)"><use fill="#fb236a" xlink:href="#gloza"/></g></g></svg>